<?xml version="1.0" encoding="UTF-8" standalone="no"?>
<svg
   id="Layer_1"
   viewBox="0 0 240.94 155.91"
   version="1.1"
   sodipodi:docname="logowhite.svg"
   inkscape:version="1.3.2 (091e20e, 2023-11-25, custom)"
   xmlns:inkscape="http://www.inkscape.org/namespaces/inkscape"
   xmlns:sodipodi="http://sodipodi.sourceforge.net/DTD/sodipodi-0.dtd"
   xmlns="http://www.w3.org/2000/svg"
   xmlns:svg="http://www.w3.org/2000/svg">
  <sodipodi:namedview
     id="namedview181"
     pagecolor="#505050"
     bordercolor="#ffffff"
     borderopacity="1"
     inkscape:showpageshadow="0"
     inkscape:pageopacity="0"
     inkscape:pagecheckerboard="1"
     inkscape:deskcolor="#505050"
     inkscape:zoom="2.3200797"
     inkscape:cx="120.47"
     inkscape:cy="77.799053"
     inkscape:window-width="1366"
     inkscape:window-height="697"
     inkscape:window-x="-8"
     inkscape:window-y="-8"
     inkscape:window-maximized="1"
     inkscape:current-layer="Layer_1" />
  <defs
     id="defs1">
    <style
       id="style1">.cls-1{stroke-width:0px;}</style>
  </defs>
  <rect
     class="cls-1"
     x="22.039616"
     y="69.010941"
     width="3.5350089"
     height="2.5631466"
     id="rect1"
     style="fill:#ffffff" />
  <rect
     class="cls-1"
     x="22.039616"
     y="72.556656"
     width="3.5350089"
     height="14.15072"
     id="rect2"
     style="fill:#ffffff" />
  <path
     class="cls-1"
     d="m 30.914533,77.04199 v -4.485485 h -3.481574 v 14.150721 h 3.481574 v -6.365161 c 0.267038,-2.851499 2.178696,-4.656398 4.65641,-4.656398 0.491257,0 0.843719,0 1.281612,0.05316 v -3.235944 c -0.331099,-0.05317 -0.790355,-0.08572 -1.24954,-0.08572 -2.990355,0 -4.378728,2.093234 -4.677766,4.624339 z"
     id="path2"
     style="fill:#ffffff" />
  <path
     class="cls-1"
     d="m 44.381767,83.898433 c -1.794176,0 -3.641817,-1.527189 -3.641817,-4.239851 0,-2.712693 1.847641,-4.271946 3.641817,-4.271946 1.089391,0 2.178699,0.437866 2.830169,1.388374 l 3.075773,-1.1107 c -1.420407,-2.317522 -3.887439,-3.268003 -5.905942,-3.268003 -2.915557,0 -7.134113,2.285489 -7.134113,7.262275 0,4.976787 4.218556,7.240876 7.134113,7.240876 2.018503,0 4.485535,-0.950477 5.9273,-3.268003 l -3.129198,-1.110702 c -0.630078,0.950514 -1.719437,1.388374 -2.798102,1.388374 z"
     id="path3"
     style="fill:#ffffff" />
  <path
     class="cls-1"
     d="m 60.946173,74.457492 c -0.160203,-0.84373 -1.687405,-2.0719 -3.91953,-2.0719 -2.990323,0 -6.642782,2.392272 -6.642782,7.240907 0,4.848634 3.673817,7.262281 6.642782,7.262281 2.232125,0 3.759327,-1.473808 3.91953,-2.285495 v 2.093259 h 3.481614 V 72.545811 h -3.481614 v 1.901006 z m -3.374831,9.440941 c -1.826238,0 -3.705884,-1.527189 -3.705884,-4.271934 0,-2.744689 1.879646,-4.239863 3.705884,-4.239863 1.826221,0 3.535023,1.14275 3.535023,4.239863 0,3.09718 -1.772875,4.271934 -3.535023,4.271934 z"
     id="path4"
     style="fill:#ffffff" />
  <path
     class="cls-1"
     d="m 69.543407,77.04199 v -4.485485 h -3.481613 v 14.150721 h 3.481613 v -6.365161 c 0.266987,-2.851499 2.178655,-4.656398 4.65637,-4.656398 0.491303,0 0.843719,0 1.281601,0.05316 v -3.235944 c -0.331088,-0.05317 -0.790298,-0.08572 -1.249528,-0.08572 -2.990355,0 -4.378729,2.093234 -4.677767,4.624339 z"
     id="path5"
     style="fill:#ffffff" />
  <path
     class="cls-1"
     d="m 86.663133,69.0108 v 5.446692 c -0.192231,-0.84373 -1.687421,-2.0719 -3.919474,-2.0719 -2.990355,0 -6.642855,2.392272 -6.642855,7.240907 0,4.848634 3.641806,7.262281 6.642855,7.262281 2.232053,0 3.727243,-1.473808 3.919474,-2.285495 v 2.093259 h 3.481586 v -17.69643 h -3.481586 z m -3.374818,14.887633 c -1.826273,0 -3.70589,-1.527189 -3.70589,-4.271934 0,-2.744689 1.879617,-4.239863 3.70589,-4.239863 1.826259,0 3.53501,1.14275 3.53501,4.239863 0,3.09718 -1.772863,4.271934 -3.53501,4.271934 z"
     id="path6"
     style="fill:#ffffff" />
  <path
     class="cls-1"
     d="m 16.65703,73.496325 c -1.046593,-0.598078 -2.253411,-0.950514 -3.545665,-0.950514 v 3.535022 c 1.95438,0 3.53499,1.58061 3.53499,3.535023 0,1.954396 -1.58061,3.53499 -3.53499,3.53499 -1.954464,0 -3.5350224,-1.580594 -3.5350224,-3.53499 H 6.0413058 c 0,3.908764 3.1718618,7.080688 7.0807012,7.080688 1.292254,0 2.499073,-0.341754 3.545705,-0.950514 v 0.950514 h 3.534983 V 72.56718 h -3.534983 v 0.929145 z"
     id="path7"
     style="fill:#ffffff" />
  <path
     class="cls-1"
     d="m 9.5763426,79.626499 h 3.5350224 v -3.535023 c -1.954464,0 -3.5350224,1.580642 -3.5350224,3.535023 z"
     id="path8"
     style="fill:#ffffff" />
  <path
     class="cls-1"
     d="M 13.111365,72.545811 V 69.0108 c -5.8632278,0 -10.6157704,4.752523 -10.6157704,10.615699 h 3.5350195 c 0,-3.908796 3.1719095,-7.080688 7.0807509,-7.080688 z"
     id="path9"
     style="fill:#ffffff" />
</svg>
